<svg id="Filled" height="512" viewBox="0 0 512 512" width="512" xmlns="http://www.w3.org/2000/svg"><path d="m64 24h112a0 0 0 0 1 0 0v80a0 0 0 0 1 0 0h-168a0 0 0 0 1 0 0v-24a56 56 0 0 1 56-56z" fill="#d0d2d4"/><path d="m440 80a56 56 0 0 0 -56-56h-320a56 56 0 0 1 56 56v352a56 56 0 0 0 56 56h208a56 56 0 0 0 56-56z" fill="#e9eef2"/><path d="m176 144h208v32h-208z" fill="#d0d2d4"/><circle cx="336" cy="296" fill="#ffd33a" r="48"/><path d="m496 424h-264v8a56 56 0 0 1 -56 56h256a64 64 0 0 0 64-64z" fill="#d0d2d4"/><path d="m176 184h208a8 8 0 0 0 8-8v-32a8 8 0 0 0 -8-8h-208a8 8 0 0 0 -8 8v32a8 8 0 0 0 8 8zm8-32h192v16h-192z"/><path d="m176 216h208a8 8 0 0 0 0-16h-208a8 8 0 0 0 0 16z"/><path d="m176 248h72a8 8 0 0 0 0-16h-72a8 8 0 0 0 0 16z"/><path d="m176 280h72a8 8 0 0 0 0-16h-72a8 8 0 0 0 0 16z"/><path d="m256 304a8 8 0 0 0 -8-8h-72a8 8 0 0 0 0 16h72a8 8 0 0 0 8-8z"/><path d="m392 376h-120a8 8 0 0 0 0 16h120a8 8 0 0 0 0-16z"/><path d="m336 232a64 64 0 1 0 64 64 64.072 64.072 0 0 0 -64-64zm0 112a48 48 0 1 1 48-48 48.055 48.055 0 0 1 -48 48z"/><path d="m352 280a8 8 0 0 0 -8-8 8 8 0 0 0 -16 0v2.165a15.986 15.986 0 0 0 8 29.835h-8a8 8 0 0 0 0 16 8 8 0 0 0 16 0v-2.165a15.986 15.986 0 0 0 -8-29.835h8a8 8 0 0 0 8-8z"/><path d="m192 120a8 8 0 0 0 8-8v-8h8a24 24 0 0 0 0-48h-16a8 8 0 0 0 -8 8v48a8 8 0 0 0 8 8zm8-48h8a8 8 0 0 1 0 16h-8z"/><path d="m248 120a8 8 0 0 0 8-8h16a8 8 0 0 0 16 0v-8a8 8 0 0 0 -.572-2.971l-16-40a8 8 0 0 0 -14.856 0l-16 40a8 8 0 0 0 -.572 2.971v8a8 8 0 0 0 8 8zm16-34.459 4.184 10.459h-8.368z"/><path d="m312 120a8 8 0 0 0 8-8v-48a8 8 0 0 0 -16 0v48a8 8 0 0 0 8 8z"/><path d="m344 120h8a32 32 0 0 0 0-64h-8a8 8 0 0 0 -8 8v48a8 8 0 0 0 8 8zm8-48a16 16 0 0 1 0 32z"/><path d="m496 416h-48v-336a64.072 64.072 0 0 0 -64-64h-320a64.072 64.072 0 0 0 -64 64v24a8 8 0 0 0 8 8h104v320a64.072 64.072 0 0 0 64 64h256a72.081 72.081 0 0 0 72-72 8 8 0 0 0 -8-8zm-384-320h-96v-16a48 48 0 0 1 96 0zm64 384a48.055 48.055 0 0 1 -48-48v-352a63.85 63.85 0 0 0 -21.736-48h277.736a48.055 48.055 0 0 1 48 48v336h-200a8 8 0 0 0 -8 8v8a48 48 0 0 1 -48 48zm256 0h-213.663q1.494-1.321 2.918-2.745a63.581 63.581 0 0 0 18.745-45.255h247.431a56.088 56.088 0 0 1 -55.431 48z"/></svg>